<mxfile host="Electron" modified="2023-11-27T08:39:53.696Z" agent="Mozilla/5.0 (Windows NT 10.0; Win64; x64) AppleWebKit/537.36 (KHTML, like Gecko) draw.io/21.7.5 Chrome/114.0.5735.289 Electron/25.8.1 Safari/537.36" etag="xsp9q1MIYAt4z3ERa3wR" version="21.7.5" type="device">
  <diagram id="C5RBs43oDa-KdzZeNtuy" name="Page-1">
    <mxGraphModel dx="1105" dy="672" grid="1" gridSize="10" guides="1" tooltips="1" connect="1" arrows="1" fold="1" page="1" pageScale="1" pageWidth="827" pageHeight="1169" math="0" shadow="0">
      <root>
        <mxCell id="WIyWlLk6GJQsqaUBKTNV-0" />
        <mxCell id="WIyWlLk6GJQsqaUBKTNV-1" parent="WIyWlLk6GJQsqaUBKTNV-0" />
        <mxCell id="j5rkKhJYRvCFbvq0OorO-108" value="" style="rounded=0;whiteSpace=wrap;html=1;" vertex="1" parent="WIyWlLk6GJQsqaUBKTNV-1">
          <mxGeometry x="359" y="800" width="481" height="330" as="geometry" />
        </mxCell>
        <mxCell id="j5rkKhJYRvCFbvq0OorO-25" value="" style="rounded=0;whiteSpace=wrap;html=1;" vertex="1" parent="WIyWlLk6GJQsqaUBKTNV-1">
          <mxGeometry x="370" y="200" width="470" height="60" as="geometry" />
        </mxCell>
        <mxCell id="j5rkKhJYRvCFbvq0OorO-0" value="" style="rounded=0;whiteSpace=wrap;html=1;" vertex="1" parent="WIyWlLk6GJQsqaUBKTNV-1">
          <mxGeometry x="370" y="40" width="470" height="160" as="geometry" />
        </mxCell>
        <mxCell id="j5rkKhJYRvCFbvq0OorO-1" value="" style="rounded=0;whiteSpace=wrap;html=1;" vertex="1" parent="WIyWlLk6GJQsqaUBKTNV-1">
          <mxGeometry x="450" y="50" width="70" height="140" as="geometry" />
        </mxCell>
        <mxCell id="j5rkKhJYRvCFbvq0OorO-2" value="" style="rounded=0;whiteSpace=wrap;html=1;fillColor=#fff2cc;strokeColor=#d6b656;" vertex="1" parent="WIyWlLk6GJQsqaUBKTNV-1">
          <mxGeometry x="534" y="50" width="70" height="140" as="geometry" />
        </mxCell>
        <mxCell id="j5rkKhJYRvCFbvq0OorO-3" value="" style="rounded=0;whiteSpace=wrap;html=1;" vertex="1" parent="WIyWlLk6GJQsqaUBKTNV-1">
          <mxGeometry x="620" y="50" width="70" height="140" as="geometry" />
        </mxCell>
        <mxCell id="j5rkKhJYRvCFbvq0OorO-4" value="" style="rounded=0;whiteSpace=wrap;html=1;" vertex="1" parent="WIyWlLk6GJQsqaUBKTNV-1">
          <mxGeometry x="700" y="50" width="70" height="140" as="geometry" />
        </mxCell>
        <mxCell id="j5rkKhJYRvCFbvq0OorO-5" value="" style="triangle;whiteSpace=wrap;html=1;" vertex="1" parent="WIyWlLk6GJQsqaUBKTNV-1">
          <mxGeometry x="780" y="90" width="60" height="80" as="geometry" />
        </mxCell>
        <mxCell id="j5rkKhJYRvCFbvq0OorO-6" value="" style="triangle;whiteSpace=wrap;html=1;rotation=-180;" vertex="1" parent="WIyWlLk6GJQsqaUBKTNV-1">
          <mxGeometry x="380" y="90" width="60" height="80" as="geometry" />
        </mxCell>
        <mxCell id="j5rkKhJYRvCFbvq0OorO-7" value="Actor" style="shape=umlActor;verticalLabelPosition=bottom;verticalAlign=top;html=1;outlineConnect=0;" vertex="1" parent="WIyWlLk6GJQsqaUBKTNV-1">
          <mxGeometry x="470" y="90" width="30" height="60" as="geometry" />
        </mxCell>
        <mxCell id="j5rkKhJYRvCFbvq0OorO-8" value="Actor" style="shape=umlActor;verticalLabelPosition=bottom;verticalAlign=top;html=1;outlineConnect=0;" vertex="1" parent="WIyWlLk6GJQsqaUBKTNV-1">
          <mxGeometry x="554" y="90" width="30" height="60" as="geometry" />
        </mxCell>
        <mxCell id="j5rkKhJYRvCFbvq0OorO-9" value="Actor" style="shape=umlActor;verticalLabelPosition=bottom;verticalAlign=top;html=1;outlineConnect=0;" vertex="1" parent="WIyWlLk6GJQsqaUBKTNV-1">
          <mxGeometry x="640" y="90" width="30" height="60" as="geometry" />
        </mxCell>
        <mxCell id="j5rkKhJYRvCFbvq0OorO-10" value="Actor" style="shape=umlActor;verticalLabelPosition=bottom;verticalAlign=top;html=1;outlineConnect=0;" vertex="1" parent="WIyWlLk6GJQsqaUBKTNV-1">
          <mxGeometry x="720" y="90" width="30" height="60" as="geometry" />
        </mxCell>
        <mxCell id="j5rkKhJYRvCFbvq0OorO-11" value="" style="shape=cylinder3;whiteSpace=wrap;html=1;boundedLbl=1;backgroundOutline=1;size=5.39996337890625;" vertex="1" parent="WIyWlLk6GJQsqaUBKTNV-1">
          <mxGeometry x="445" y="280" width="20" height="60" as="geometry" />
        </mxCell>
        <mxCell id="j5rkKhJYRvCFbvq0OorO-12" value="" style="ellipse;whiteSpace=wrap;html=1;aspect=fixed;fillColor=#f8cecc;strokeColor=#b85450;" vertex="1" parent="WIyWlLk6GJQsqaUBKTNV-1">
          <mxGeometry x="420" y="230" width="70" height="70" as="geometry" />
        </mxCell>
        <mxCell id="j5rkKhJYRvCFbvq0OorO-17" value="" style="shape=cylinder3;whiteSpace=wrap;html=1;boundedLbl=1;backgroundOutline=1;size=15;fillColor=#dae8fc;strokeColor=#6c8ebf;" vertex="1" parent="WIyWlLk6GJQsqaUBKTNV-1">
          <mxGeometry x="539" y="290" width="60" height="40" as="geometry" />
        </mxCell>
        <mxCell id="j5rkKhJYRvCFbvq0OorO-18" value="" style="shape=cylinder3;whiteSpace=wrap;html=1;boundedLbl=1;backgroundOutline=1;size=15;fillColor=#d5e8d4;strokeColor=#82b366;" vertex="1" parent="WIyWlLk6GJQsqaUBKTNV-1">
          <mxGeometry x="610" y="260" width="60" height="40" as="geometry" />
        </mxCell>
        <mxCell id="j5rkKhJYRvCFbvq0OorO-19" value="" style="shape=cylinder3;whiteSpace=wrap;html=1;boundedLbl=1;backgroundOutline=1;size=15;fillColor=#e1d5e7;strokeColor=#9673a6;" vertex="1" parent="WIyWlLk6GJQsqaUBKTNV-1">
          <mxGeometry x="640" y="310" width="60" height="40" as="geometry" />
        </mxCell>
        <mxCell id="j5rkKhJYRvCFbvq0OorO-20" value="" style="shape=cylinder3;whiteSpace=wrap;html=1;boundedLbl=1;backgroundOutline=1;size=15;fillColor=#fff2cc;strokeColor=#d6b656;" vertex="1" parent="WIyWlLk6GJQsqaUBKTNV-1">
          <mxGeometry x="705" y="280" width="60" height="40" as="geometry" />
        </mxCell>
        <mxCell id="j5rkKhJYRvCFbvq0OorO-21" value="" style="rounded=0;whiteSpace=wrap;html=1;" vertex="1" parent="WIyWlLk6GJQsqaUBKTNV-1">
          <mxGeometry x="434" y="410" width="86" height="60" as="geometry" />
        </mxCell>
        <mxCell id="j5rkKhJYRvCFbvq0OorO-36" style="edgeStyle=orthogonalEdgeStyle;rounded=0;orthogonalLoop=1;jettySize=auto;html=1;entryX=1;entryY=0.5;entryDx=0;entryDy=0;dashed=1;" edge="1" parent="WIyWlLk6GJQsqaUBKTNV-1" source="j5rkKhJYRvCFbvq0OorO-22" target="j5rkKhJYRvCFbvq0OorO-24">
          <mxGeometry relative="1" as="geometry">
            <Array as="points">
              <mxPoint x="920" y="395" />
              <mxPoint x="920" y="25" />
            </Array>
          </mxGeometry>
        </mxCell>
        <mxCell id="j5rkKhJYRvCFbvq0OorO-22" value="CharacterSelected Data" style="text;html=1;strokeColor=#2D7600;fillColor=#60a917;align=center;verticalAlign=middle;whiteSpace=wrap;rounded=0;fontColor=#ffffff;" vertex="1" parent="WIyWlLk6GJQsqaUBKTNV-1">
          <mxGeometry x="434" y="380" width="160" height="30" as="geometry" />
        </mxCell>
        <mxCell id="j5rkKhJYRvCFbvq0OorO-23" value="1" style="text;html=1;strokeColor=none;fillColor=none;align=center;verticalAlign=middle;whiteSpace=wrap;rounded=0;" vertex="1" parent="WIyWlLk6GJQsqaUBKTNV-1">
          <mxGeometry x="460" y="425" width="30" height="30" as="geometry" />
        </mxCell>
        <mxCell id="j5rkKhJYRvCFbvq0OorO-24" value="CharacterSelection UI (View)" style="text;html=1;strokeColor=#2D7600;fillColor=#60a917;align=center;verticalAlign=middle;whiteSpace=wrap;rounded=0;fontColor=#ffffff;" vertex="1" parent="WIyWlLk6GJQsqaUBKTNV-1">
          <mxGeometry x="370" y="10" width="160" height="30" as="geometry" />
        </mxCell>
        <mxCell id="j5rkKhJYRvCFbvq0OorO-26" value="" style="rounded=0;whiteSpace=wrap;html=1;" vertex="1" parent="WIyWlLk6GJQsqaUBKTNV-1">
          <mxGeometry x="509" y="210" width="41" height="40" as="geometry" />
        </mxCell>
        <mxCell id="j5rkKhJYRvCFbvq0OorO-27" value="" style="shape=cylinder3;whiteSpace=wrap;html=1;boundedLbl=1;backgroundOutline=1;size=7;rotation=-45;fillColor=#d80073;fontColor=#ffffff;strokeColor=#A50040;" vertex="1" parent="WIyWlLk6GJQsqaUBKTNV-1">
          <mxGeometry x="519" y="210" width="20" height="40" as="geometry" />
        </mxCell>
        <mxCell id="j5rkKhJYRvCFbvq0OorO-28" value="" style="rounded=0;whiteSpace=wrap;html=1;" vertex="1" parent="WIyWlLk6GJQsqaUBKTNV-1">
          <mxGeometry x="563" y="210" width="41" height="40" as="geometry" />
        </mxCell>
        <mxCell id="j5rkKhJYRvCFbvq0OorO-29" value="" style="shape=cylinder3;whiteSpace=wrap;html=1;boundedLbl=1;backgroundOutline=1;size=7;rotation=-45;fillColor=#6a00ff;fontColor=#ffffff;strokeColor=#3700CC;" vertex="1" parent="WIyWlLk6GJQsqaUBKTNV-1">
          <mxGeometry x="573" y="210" width="20" height="40" as="geometry" />
        </mxCell>
        <mxCell id="j5rkKhJYRvCFbvq0OorO-30" value="" style="rounded=0;whiteSpace=wrap;html=1;" vertex="1" parent="WIyWlLk6GJQsqaUBKTNV-1">
          <mxGeometry x="619.5" y="210" width="41" height="40" as="geometry" />
        </mxCell>
        <mxCell id="j5rkKhJYRvCFbvq0OorO-31" value="" style="shape=cylinder3;whiteSpace=wrap;html=1;boundedLbl=1;backgroundOutline=1;size=7;rotation=-45;fillColor=#1ba1e2;fontColor=#ffffff;strokeColor=#006EAF;" vertex="1" parent="WIyWlLk6GJQsqaUBKTNV-1">
          <mxGeometry x="629.5" y="210" width="20" height="40" as="geometry" />
        </mxCell>
        <mxCell id="j5rkKhJYRvCFbvq0OorO-34" style="edgeStyle=orthogonalEdgeStyle;rounded=0;orthogonalLoop=1;jettySize=auto;html=1;entryX=0;entryY=0.5;entryDx=0;entryDy=0;" edge="1" parent="WIyWlLk6GJQsqaUBKTNV-1" source="j5rkKhJYRvCFbvq0OorO-33" target="j5rkKhJYRvCFbvq0OorO-24">
          <mxGeometry relative="1" as="geometry" />
        </mxCell>
        <mxCell id="j5rkKhJYRvCFbvq0OorO-35" style="edgeStyle=orthogonalEdgeStyle;rounded=0;orthogonalLoop=1;jettySize=auto;html=1;entryX=0;entryY=0.5;entryDx=0;entryDy=0;" edge="1" parent="WIyWlLk6GJQsqaUBKTNV-1" source="j5rkKhJYRvCFbvq0OorO-33" target="j5rkKhJYRvCFbvq0OorO-22">
          <mxGeometry relative="1" as="geometry">
            <Array as="points">
              <mxPoint x="325" y="395" />
            </Array>
          </mxGeometry>
        </mxCell>
        <mxCell id="j5rkKhJYRvCFbvq0OorO-33" value="Controller" style="text;html=1;strokeColor=#2D7600;fillColor=#60a917;align=center;verticalAlign=middle;whiteSpace=wrap;rounded=0;fontColor=#ffffff;" vertex="1" parent="WIyWlLk6GJQsqaUBKTNV-1">
          <mxGeometry x="270" y="290" width="110" height="30" as="geometry" />
        </mxCell>
        <mxCell id="j5rkKhJYRvCFbvq0OorO-37" value="Notification" style="text;html=1;strokeColor=none;fillColor=none;align=center;verticalAlign=middle;whiteSpace=wrap;rounded=0;" vertex="1" parent="WIyWlLk6GJQsqaUBKTNV-1">
          <mxGeometry x="920" y="200" width="70" height="30" as="geometry" />
        </mxCell>
        <mxCell id="j5rkKhJYRvCFbvq0OorO-38" value="MVC&lt;br&gt;(Model - View - Controller)" style="rounded=0;whiteSpace=wrap;html=1;fillColor=#1ba1e2;fontColor=#ffffff;strokeColor=#006EAF;" vertex="1" parent="WIyWlLk6GJQsqaUBKTNV-1">
          <mxGeometry x="10" y="10" width="170" height="60" as="geometry" />
        </mxCell>
        <mxCell id="j5rkKhJYRvCFbvq0OorO-42" style="edgeStyle=orthogonalEdgeStyle;rounded=0;orthogonalLoop=1;jettySize=auto;html=1;entryX=0;entryY=0.5;entryDx=0;entryDy=0;" edge="1" parent="WIyWlLk6GJQsqaUBKTNV-1" source="j5rkKhJYRvCFbvq0OorO-39" target="j5rkKhJYRvCFbvq0OorO-40">
          <mxGeometry relative="1" as="geometry" />
        </mxCell>
        <mxCell id="j5rkKhJYRvCFbvq0OorO-43" style="edgeStyle=orthogonalEdgeStyle;rounded=0;orthogonalLoop=1;jettySize=auto;html=1;entryX=0;entryY=0.5;entryDx=0;entryDy=0;" edge="1" parent="WIyWlLk6GJQsqaUBKTNV-1" source="j5rkKhJYRvCFbvq0OorO-39" target="j5rkKhJYRvCFbvq0OorO-41">
          <mxGeometry relative="1" as="geometry" />
        </mxCell>
        <mxCell id="j5rkKhJYRvCFbvq0OorO-39" value="Controller" style="text;html=1;strokeColor=#2D7600;fillColor=#60a917;align=center;verticalAlign=middle;whiteSpace=wrap;rounded=0;fontColor=#ffffff;" vertex="1" parent="WIyWlLk6GJQsqaUBKTNV-1">
          <mxGeometry x="60" y="190" width="70" height="30" as="geometry" />
        </mxCell>
        <mxCell id="j5rkKhJYRvCFbvq0OorO-40" value="View" style="text;html=1;strokeColor=#2D7600;fillColor=#60a917;align=center;verticalAlign=middle;whiteSpace=wrap;rounded=0;fontColor=#ffffff;" vertex="1" parent="WIyWlLk6GJQsqaUBKTNV-1">
          <mxGeometry x="120" y="120" width="80" height="30" as="geometry" />
        </mxCell>
        <mxCell id="j5rkKhJYRvCFbvq0OorO-41" value="DataModel" style="text;html=1;strokeColor=#2D7600;fillColor=#60a917;align=center;verticalAlign=middle;whiteSpace=wrap;rounded=0;fontColor=#ffffff;" vertex="1" parent="WIyWlLk6GJQsqaUBKTNV-1">
          <mxGeometry x="120" y="260" width="80" height="30" as="geometry" />
        </mxCell>
        <mxCell id="j5rkKhJYRvCFbvq0OorO-44" value="" style="endArrow=classic;html=1;rounded=0;exitX=0.5;exitY=0;exitDx=0;exitDy=0;entryX=0.5;entryY=1;entryDx=0;entryDy=0;dashed=1;" edge="1" parent="WIyWlLk6GJQsqaUBKTNV-1" source="j5rkKhJYRvCFbvq0OorO-41" target="j5rkKhJYRvCFbvq0OorO-40">
          <mxGeometry width="50" height="50" relative="1" as="geometry">
            <mxPoint x="520" y="280" as="sourcePoint" />
            <mxPoint x="570" y="230" as="targetPoint" />
          </mxGeometry>
        </mxCell>
        <mxCell id="j5rkKhJYRvCFbvq0OorO-45" value="Notification" style="text;html=1;strokeColor=none;fillColor=none;align=center;verticalAlign=middle;whiteSpace=wrap;rounded=0;" vertex="1" parent="WIyWlLk6GJQsqaUBKTNV-1">
          <mxGeometry x="170" y="190" width="70" height="30" as="geometry" />
        </mxCell>
        <mxCell id="j5rkKhJYRvCFbvq0OorO-46" style="edgeStyle=orthogonalEdgeStyle;rounded=0;orthogonalLoop=1;jettySize=auto;html=1;entryX=0;entryY=0.5;entryDx=0;entryDy=0;" edge="1" parent="WIyWlLk6GJQsqaUBKTNV-1" source="j5rkKhJYRvCFbvq0OorO-48" target="j5rkKhJYRvCFbvq0OorO-49">
          <mxGeometry relative="1" as="geometry" />
        </mxCell>
        <mxCell id="j5rkKhJYRvCFbvq0OorO-47" style="edgeStyle=orthogonalEdgeStyle;rounded=0;orthogonalLoop=1;jettySize=auto;html=1;entryX=0;entryY=0.5;entryDx=0;entryDy=0;" edge="1" parent="WIyWlLk6GJQsqaUBKTNV-1" source="j5rkKhJYRvCFbvq0OorO-48" target="j5rkKhJYRvCFbvq0OorO-50">
          <mxGeometry relative="1" as="geometry" />
        </mxCell>
        <mxCell id="j5rkKhJYRvCFbvq0OorO-48" value="Controller" style="text;html=1;strokeColor=#2D7600;fillColor=#60a917;align=center;verticalAlign=middle;whiteSpace=wrap;rounded=0;fontColor=#ffffff;" vertex="1" parent="WIyWlLk6GJQsqaUBKTNV-1">
          <mxGeometry x="60" y="380" width="70" height="30" as="geometry" />
        </mxCell>
        <mxCell id="j5rkKhJYRvCFbvq0OorO-49" value="View" style="text;html=1;strokeColor=#2D7600;fillColor=#60a917;align=center;verticalAlign=middle;whiteSpace=wrap;rounded=0;fontColor=#ffffff;" vertex="1" parent="WIyWlLk6GJQsqaUBKTNV-1">
          <mxGeometry x="120" y="310" width="80" height="30" as="geometry" />
        </mxCell>
        <mxCell id="j5rkKhJYRvCFbvq0OorO-50" value="DataModel" style="text;html=1;strokeColor=#2D7600;fillColor=#60a917;align=center;verticalAlign=middle;whiteSpace=wrap;rounded=0;fontColor=#ffffff;" vertex="1" parent="WIyWlLk6GJQsqaUBKTNV-1">
          <mxGeometry x="120" y="450" width="80" height="30" as="geometry" />
        </mxCell>
        <mxCell id="j5rkKhJYRvCFbvq0OorO-51" value="" style="endArrow=classic;html=1;rounded=0;exitX=0;exitY=0.75;exitDx=0;exitDy=0;entryX=0.25;entryY=1;entryDx=0;entryDy=0;dashed=1;" edge="1" parent="WIyWlLk6GJQsqaUBKTNV-1" source="j5rkKhJYRvCFbvq0OorO-50" target="j5rkKhJYRvCFbvq0OorO-48">
          <mxGeometry width="50" height="50" relative="1" as="geometry">
            <mxPoint x="520" y="470" as="sourcePoint" />
            <mxPoint x="570" y="420" as="targetPoint" />
            <Array as="points">
              <mxPoint x="78" y="473" />
            </Array>
          </mxGeometry>
        </mxCell>
        <mxCell id="j5rkKhJYRvCFbvq0OorO-52" value="Notification" style="text;html=1;strokeColor=none;fillColor=none;align=center;verticalAlign=middle;whiteSpace=wrap;rounded=0;" vertex="1" parent="WIyWlLk6GJQsqaUBKTNV-1">
          <mxGeometry x="10" y="425" width="70" height="30" as="geometry" />
        </mxCell>
        <mxCell id="j5rkKhJYRvCFbvq0OorO-53" value="" style="endArrow=classic;html=1;rounded=0;exitX=0.25;exitY=0;exitDx=0;exitDy=0;entryX=0;entryY=0.25;entryDx=0;entryDy=0;dashed=1;" edge="1" parent="WIyWlLk6GJQsqaUBKTNV-1" source="j5rkKhJYRvCFbvq0OorO-48" target="j5rkKhJYRvCFbvq0OorO-49">
          <mxGeometry width="50" height="50" relative="1" as="geometry">
            <mxPoint x="170" y="460" as="sourcePoint" />
            <mxPoint x="123" y="420" as="targetPoint" />
            <Array as="points">
              <mxPoint x="78" y="318" />
            </Array>
          </mxGeometry>
        </mxCell>
        <mxCell id="j5rkKhJYRvCFbvq0OorO-54" value="Notification" style="text;html=1;strokeColor=none;fillColor=none;align=center;verticalAlign=middle;whiteSpace=wrap;rounded=0;" vertex="1" parent="WIyWlLk6GJQsqaUBKTNV-1">
          <mxGeometry x="10" y="310" width="70" height="30" as="geometry" />
        </mxCell>
        <mxCell id="j5rkKhJYRvCFbvq0OorO-55" value="" style="rounded=0;whiteSpace=wrap;html=1;" vertex="1" parent="WIyWlLk6GJQsqaUBKTNV-1">
          <mxGeometry x="359" y="540" width="351" height="190" as="geometry" />
        </mxCell>
        <mxCell id="j5rkKhJYRvCFbvq0OorO-56" value="SpendShop (View)" style="text;html=1;strokeColor=#2D7600;fillColor=#60a917;align=center;verticalAlign=middle;whiteSpace=wrap;rounded=0;fontColor=#ffffff;" vertex="1" parent="WIyWlLk6GJQsqaUBKTNV-1">
          <mxGeometry x="359" y="510" width="160" height="30" as="geometry" />
        </mxCell>
        <mxCell id="j5rkKhJYRvCFbvq0OorO-57" value="" style="rounded=0;whiteSpace=wrap;html=1;" vertex="1" parent="WIyWlLk6GJQsqaUBKTNV-1">
          <mxGeometry x="370" y="555" width="170" height="155" as="geometry" />
        </mxCell>
        <mxCell id="j5rkKhJYRvCFbvq0OorO-58" value="" style="rounded=0;whiteSpace=wrap;html=1;" vertex="1" parent="WIyWlLk6GJQsqaUBKTNV-1">
          <mxGeometry x="550" y="555" width="150" height="155" as="geometry" />
        </mxCell>
        <mxCell id="j5rkKhJYRvCFbvq0OorO-59" value="" style="whiteSpace=wrap;html=1;aspect=fixed;" vertex="1" parent="WIyWlLk6GJQsqaUBKTNV-1">
          <mxGeometry x="554" y="560" width="40" height="40" as="geometry" />
        </mxCell>
        <mxCell id="j5rkKhJYRvCFbvq0OorO-60" value="" style="whiteSpace=wrap;html=1;aspect=fixed;" vertex="1" parent="WIyWlLk6GJQsqaUBKTNV-1">
          <mxGeometry x="599" y="560" width="40" height="40" as="geometry" />
        </mxCell>
        <mxCell id="j5rkKhJYRvCFbvq0OorO-61" value="" style="whiteSpace=wrap;html=1;aspect=fixed;" vertex="1" parent="WIyWlLk6GJQsqaUBKTNV-1">
          <mxGeometry x="650" y="560" width="40" height="40" as="geometry" />
        </mxCell>
        <mxCell id="j5rkKhJYRvCFbvq0OorO-62" value="" style="whiteSpace=wrap;html=1;aspect=fixed;" vertex="1" parent="WIyWlLk6GJQsqaUBKTNV-1">
          <mxGeometry x="554" y="610" width="40" height="40" as="geometry" />
        </mxCell>
        <mxCell id="j5rkKhJYRvCFbvq0OorO-63" value="" style="whiteSpace=wrap;html=1;aspect=fixed;" vertex="1" parent="WIyWlLk6GJQsqaUBKTNV-1">
          <mxGeometry x="599" y="610" width="40" height="40" as="geometry" />
        </mxCell>
        <mxCell id="j5rkKhJYRvCFbvq0OorO-64" value="" style="whiteSpace=wrap;html=1;aspect=fixed;" vertex="1" parent="WIyWlLk6GJQsqaUBKTNV-1">
          <mxGeometry x="650" y="610" width="40" height="40" as="geometry" />
        </mxCell>
        <mxCell id="j5rkKhJYRvCFbvq0OorO-65" value="" style="whiteSpace=wrap;html=1;aspect=fixed;" vertex="1" parent="WIyWlLk6GJQsqaUBKTNV-1">
          <mxGeometry x="554" y="660" width="40" height="40" as="geometry" />
        </mxCell>
        <mxCell id="j5rkKhJYRvCFbvq0OorO-66" value="" style="whiteSpace=wrap;html=1;aspect=fixed;" vertex="1" parent="WIyWlLk6GJQsqaUBKTNV-1">
          <mxGeometry x="599" y="660" width="40" height="40" as="geometry" />
        </mxCell>
        <mxCell id="j5rkKhJYRvCFbvq0OorO-67" value="" style="whiteSpace=wrap;html=1;aspect=fixed;" vertex="1" parent="WIyWlLk6GJQsqaUBKTNV-1">
          <mxGeometry x="650" y="660" width="40" height="40" as="geometry" />
        </mxCell>
        <mxCell id="j5rkKhJYRvCFbvq0OorO-68" value="" style="rounded=0;whiteSpace=wrap;html=1;" vertex="1" parent="WIyWlLk6GJQsqaUBKTNV-1">
          <mxGeometry x="379" y="560" width="151" height="50" as="geometry" />
        </mxCell>
        <mxCell id="j5rkKhJYRvCFbvq0OorO-69" value="" style="whiteSpace=wrap;html=1;aspect=fixed;" vertex="1" parent="WIyWlLk6GJQsqaUBKTNV-1">
          <mxGeometry x="384" y="565" width="40" height="40" as="geometry" />
        </mxCell>
        <mxCell id="j5rkKhJYRvCFbvq0OorO-70" value="" style="shape=cylinder3;whiteSpace=wrap;html=1;boundedLbl=1;backgroundOutline=1;size=2.693099453392051;rotation=-45;fillColor=#e51400;fontColor=#ffffff;strokeColor=#B20000;" vertex="1" parent="WIyWlLk6GJQsqaUBKTNV-1">
          <mxGeometry x="396.5" y="573.7900000000001" width="15" height="26.21" as="geometry" />
        </mxCell>
        <mxCell id="j5rkKhJYRvCFbvq0OorO-71" value="Red Potion" style="text;html=1;strokeColor=none;fillColor=none;align=center;verticalAlign=middle;whiteSpace=wrap;rounded=0;" vertex="1" parent="WIyWlLk6GJQsqaUBKTNV-1">
          <mxGeometry x="430" y="565" width="90" height="15" as="geometry" />
        </mxCell>
        <mxCell id="j5rkKhJYRvCFbvq0OorO-72" value="50 G" style="text;html=1;strokeColor=none;fillColor=none;align=right;verticalAlign=middle;whiteSpace=wrap;rounded=0;" vertex="1" parent="WIyWlLk6GJQsqaUBKTNV-1">
          <mxGeometry x="434" y="590" width="90" height="15" as="geometry" />
        </mxCell>
        <mxCell id="j5rkKhJYRvCFbvq0OorO-73" value="" style="rounded=0;whiteSpace=wrap;html=1;" vertex="1" parent="WIyWlLk6GJQsqaUBKTNV-1">
          <mxGeometry x="378" y="620" width="151" height="50" as="geometry" />
        </mxCell>
        <mxCell id="j5rkKhJYRvCFbvq0OorO-74" value="" style="whiteSpace=wrap;html=1;aspect=fixed;" vertex="1" parent="WIyWlLk6GJQsqaUBKTNV-1">
          <mxGeometry x="383" y="625" width="40" height="40" as="geometry" />
        </mxCell>
        <mxCell id="j5rkKhJYRvCFbvq0OorO-75" value="" style="shape=cylinder3;whiteSpace=wrap;html=1;boundedLbl=1;backgroundOutline=1;size=2.693099453392051;rotation=-45;fillColor=#0050ef;fontColor=#ffffff;strokeColor=#001DBC;" vertex="1" parent="WIyWlLk6GJQsqaUBKTNV-1">
          <mxGeometry x="395.5" y="633.7900000000001" width="15" height="26.21" as="geometry" />
        </mxCell>
        <mxCell id="j5rkKhJYRvCFbvq0OorO-76" value="Blue Potion" style="text;html=1;strokeColor=none;fillColor=none;align=center;verticalAlign=middle;whiteSpace=wrap;rounded=0;" vertex="1" parent="WIyWlLk6GJQsqaUBKTNV-1">
          <mxGeometry x="429" y="625" width="90" height="15" as="geometry" />
        </mxCell>
        <mxCell id="j5rkKhJYRvCFbvq0OorO-77" value="75 G" style="text;html=1;strokeColor=none;fillColor=none;align=right;verticalAlign=middle;whiteSpace=wrap;rounded=0;" vertex="1" parent="WIyWlLk6GJQsqaUBKTNV-1">
          <mxGeometry x="433" y="650" width="90" height="15" as="geometry" />
        </mxCell>
        <mxCell id="j5rkKhJYRvCFbvq0OorO-78" value="" style="shape=cylinder3;whiteSpace=wrap;html=1;boundedLbl=1;backgroundOutline=1;size=2.693099453392051;rotation=-45;fillColor=#e51400;fontColor=#ffffff;strokeColor=#B20000;" vertex="1" parent="WIyWlLk6GJQsqaUBKTNV-1">
          <mxGeometry x="566" y="566.8900000000001" width="15" height="26.21" as="geometry" />
        </mxCell>
        <mxCell id="j5rkKhJYRvCFbvq0OorO-79" value="33" style="text;html=1;strokeColor=none;fillColor=none;align=right;verticalAlign=middle;whiteSpace=wrap;rounded=0;" vertex="1" parent="WIyWlLk6GJQsqaUBKTNV-1">
          <mxGeometry x="554" y="575" width="34" height="20" as="geometry" />
        </mxCell>
        <mxCell id="j5rkKhJYRvCFbvq0OorO-80" value="25 G" style="text;html=1;strokeColor=#d6b656;fillColor=#fff2cc;align=center;verticalAlign=middle;whiteSpace=wrap;rounded=0;" vertex="1" parent="WIyWlLk6GJQsqaUBKTNV-1">
          <mxGeometry x="635" y="710" width="65" height="20" as="geometry" />
        </mxCell>
        <mxCell id="j5rkKhJYRvCFbvq0OorO-81" value="DependencySource" style="text;html=1;strokeColor=#BD7000;fillColor=#f0a30a;align=center;verticalAlign=middle;whiteSpace=wrap;rounded=0;fontColor=#000000;" vertex="1" parent="WIyWlLk6GJQsqaUBKTNV-1">
          <mxGeometry x="370" y="810" width="160" height="30" as="geometry" />
        </mxCell>
        <mxCell id="j5rkKhJYRvCFbvq0OorO-88" style="edgeStyle=orthogonalEdgeStyle;rounded=0;orthogonalLoop=1;jettySize=auto;html=1;entryX=0;entryY=0.5;entryDx=0;entryDy=0;dashed=1;" edge="1" parent="WIyWlLk6GJQsqaUBKTNV-1" source="j5rkKhJYRvCFbvq0OorO-82" target="j5rkKhJYRvCFbvq0OorO-85">
          <mxGeometry relative="1" as="geometry">
            <Array as="points">
              <mxPoint x="370" y="865" />
            </Array>
          </mxGeometry>
        </mxCell>
        <mxCell id="j5rkKhJYRvCFbvq0OorO-82" value="SpendShopList Data" style="text;html=1;strokeColor=#2D7600;fillColor=#60a917;align=center;verticalAlign=middle;whiteSpace=wrap;rounded=0;fontColor=#ffffff;" vertex="1" parent="WIyWlLk6GJQsqaUBKTNV-1">
          <mxGeometry x="369" y="1189" width="160" height="30" as="geometry" />
        </mxCell>
        <mxCell id="j5rkKhJYRvCFbvq0OorO-89" style="edgeStyle=orthogonalEdgeStyle;rounded=0;orthogonalLoop=1;jettySize=auto;html=1;entryX=0;entryY=0.5;entryDx=0;entryDy=0;dashed=1;" edge="1" parent="WIyWlLk6GJQsqaUBKTNV-1" source="j5rkKhJYRvCFbvq0OorO-83" target="j5rkKhJYRvCFbvq0OorO-86">
          <mxGeometry relative="1" as="geometry">
            <Array as="points">
              <mxPoint x="652" y="1170" />
              <mxPoint x="370" y="1170" />
              <mxPoint x="370" y="980" />
              <mxPoint x="369" y="980" />
              <mxPoint x="369" y="905" />
            </Array>
          </mxGeometry>
        </mxCell>
        <mxCell id="j5rkKhJYRvCFbvq0OorO-83" value="Inventory Data" style="text;html=1;strokeColor=#2D7600;fillColor=#60a917;align=center;verticalAlign=middle;whiteSpace=wrap;rounded=0;fontColor=#ffffff;" vertex="1" parent="WIyWlLk6GJQsqaUBKTNV-1">
          <mxGeometry x="572" y="1189" width="160" height="30" as="geometry" />
        </mxCell>
        <mxCell id="j5rkKhJYRvCFbvq0OorO-84" value="Gold Data" style="text;html=1;strokeColor=#2D7600;fillColor=#60a917;align=center;verticalAlign=middle;whiteSpace=wrap;rounded=0;fontColor=#ffffff;" vertex="1" parent="WIyWlLk6GJQsqaUBKTNV-1">
          <mxGeometry x="769" y="1189" width="160" height="30" as="geometry" />
        </mxCell>
        <mxCell id="j5rkKhJYRvCFbvq0OorO-92" style="edgeStyle=orthogonalEdgeStyle;rounded=0;orthogonalLoop=1;jettySize=auto;html=1;entryX=1;entryY=0.5;entryDx=0;entryDy=0;dashed=1;" edge="1" parent="WIyWlLk6GJQsqaUBKTNV-1" source="j5rkKhJYRvCFbvq0OorO-85" target="j5rkKhJYRvCFbvq0OorO-56">
          <mxGeometry relative="1" as="geometry">
            <Array as="points">
              <mxPoint x="780" y="865" />
              <mxPoint x="780" y="525" />
            </Array>
          </mxGeometry>
        </mxCell>
        <mxCell id="j5rkKhJYRvCFbvq0OorO-85" value="SpendShopList Source" style="rounded=0;whiteSpace=wrap;html=1;" vertex="1" parent="WIyWlLk6GJQsqaUBKTNV-1">
          <mxGeometry x="390" y="850" width="190" height="30" as="geometry" />
        </mxCell>
        <mxCell id="j5rkKhJYRvCFbvq0OorO-93" style="edgeStyle=orthogonalEdgeStyle;rounded=0;orthogonalLoop=1;jettySize=auto;html=1;entryX=1;entryY=0.5;entryDx=0;entryDy=0;dashed=1;" edge="1" parent="WIyWlLk6GJQsqaUBKTNV-1" source="j5rkKhJYRvCFbvq0OorO-86" target="j5rkKhJYRvCFbvq0OorO-56">
          <mxGeometry relative="1" as="geometry">
            <Array as="points">
              <mxPoint x="780" y="905" />
              <mxPoint x="780" y="525" />
            </Array>
          </mxGeometry>
        </mxCell>
        <mxCell id="j5rkKhJYRvCFbvq0OorO-86" value="Inventory Source" style="rounded=0;whiteSpace=wrap;html=1;" vertex="1" parent="WIyWlLk6GJQsqaUBKTNV-1">
          <mxGeometry x="389" y="890" width="190" height="30" as="geometry" />
        </mxCell>
        <mxCell id="j5rkKhJYRvCFbvq0OorO-94" style="edgeStyle=orthogonalEdgeStyle;rounded=0;orthogonalLoop=1;jettySize=auto;html=1;entryX=1;entryY=0.5;entryDx=0;entryDy=0;dashed=1;" edge="1" parent="WIyWlLk6GJQsqaUBKTNV-1" source="j5rkKhJYRvCFbvq0OorO-87" target="j5rkKhJYRvCFbvq0OorO-56">
          <mxGeometry relative="1" as="geometry">
            <Array as="points">
              <mxPoint x="780" y="945" />
              <mxPoint x="780" y="525" />
            </Array>
          </mxGeometry>
        </mxCell>
        <mxCell id="j5rkKhJYRvCFbvq0OorO-87" value="Gold Source" style="rounded=0;whiteSpace=wrap;html=1;" vertex="1" parent="WIyWlLk6GJQsqaUBKTNV-1">
          <mxGeometry x="390" y="930" width="190" height="30" as="geometry" />
        </mxCell>
        <mxCell id="j5rkKhJYRvCFbvq0OorO-90" style="edgeStyle=orthogonalEdgeStyle;rounded=0;orthogonalLoop=1;jettySize=auto;html=1;entryX=0;entryY=0.5;entryDx=0;entryDy=0;exitX=0.5;exitY=0;exitDx=0;exitDy=0;dashed=1;" edge="1" parent="WIyWlLk6GJQsqaUBKTNV-1" source="j5rkKhJYRvCFbvq0OorO-84" target="j5rkKhJYRvCFbvq0OorO-87">
          <mxGeometry relative="1" as="geometry">
            <mxPoint x="662" y="1050" as="sourcePoint" />
            <mxPoint x="399" y="915" as="targetPoint" />
            <Array as="points">
              <mxPoint x="849" y="1170" />
              <mxPoint x="370" y="1170" />
              <mxPoint x="370" y="945" />
            </Array>
          </mxGeometry>
        </mxCell>
        <mxCell id="j5rkKhJYRvCFbvq0OorO-91" value="Notification" style="text;html=1;strokeColor=none;fillColor=none;align=center;verticalAlign=middle;whiteSpace=wrap;rounded=0;" vertex="1" parent="WIyWlLk6GJQsqaUBKTNV-1">
          <mxGeometry x="374" y="970" width="60" height="30" as="geometry" />
        </mxCell>
        <mxCell id="j5rkKhJYRvCFbvq0OorO-95" value="Notification" style="text;html=1;strokeColor=none;fillColor=none;align=center;verticalAlign=middle;whiteSpace=wrap;rounded=0;" vertex="1" parent="WIyWlLk6GJQsqaUBKTNV-1">
          <mxGeometry x="750" y="665" width="60" height="30" as="geometry" />
        </mxCell>
        <mxCell id="j5rkKhJYRvCFbvq0OorO-96" value="Commands" style="text;html=1;strokeColor=#BD7000;fillColor=#f0a30a;align=center;verticalAlign=middle;whiteSpace=wrap;rounded=0;fontColor=#000000;" vertex="1" parent="WIyWlLk6GJQsqaUBKTNV-1">
          <mxGeometry x="419" y="1010" width="160" height="30" as="geometry" />
        </mxCell>
        <mxCell id="j5rkKhJYRvCFbvq0OorO-99" style="edgeStyle=orthogonalEdgeStyle;rounded=0;orthogonalLoop=1;jettySize=auto;html=1;entryX=1;entryY=0.75;entryDx=0;entryDy=0;" edge="1" parent="WIyWlLk6GJQsqaUBKTNV-1" source="j5rkKhJYRvCFbvq0OorO-97" target="j5rkKhJYRvCFbvq0OorO-85">
          <mxGeometry relative="1" as="geometry">
            <Array as="points">
              <mxPoint x="690" y="1065" />
              <mxPoint x="690" y="873" />
              <mxPoint x="580" y="873" />
            </Array>
          </mxGeometry>
        </mxCell>
        <mxCell id="j5rkKhJYRvCFbvq0OorO-103" style="edgeStyle=orthogonalEdgeStyle;rounded=0;orthogonalLoop=1;jettySize=auto;html=1;entryX=0.25;entryY=0;entryDx=0;entryDy=0;" edge="1" parent="WIyWlLk6GJQsqaUBKTNV-1" source="j5rkKhJYRvCFbvq0OorO-97" target="j5rkKhJYRvCFbvq0OorO-82">
          <mxGeometry relative="1" as="geometry">
            <Array as="points">
              <mxPoint x="409" y="1065" />
            </Array>
          </mxGeometry>
        </mxCell>
        <mxCell id="j5rkKhJYRvCFbvq0OorO-104" style="edgeStyle=orthogonalEdgeStyle;rounded=0;orthogonalLoop=1;jettySize=auto;html=1;entryX=0.25;entryY=0;entryDx=0;entryDy=0;" edge="1" parent="WIyWlLk6GJQsqaUBKTNV-1" source="j5rkKhJYRvCFbvq0OorO-97" target="j5rkKhJYRvCFbvq0OorO-83">
          <mxGeometry relative="1" as="geometry">
            <Array as="points">
              <mxPoint x="410" y="1065" />
              <mxPoint x="410" y="1140" />
              <mxPoint x="612" y="1140" />
            </Array>
          </mxGeometry>
        </mxCell>
        <mxCell id="j5rkKhJYRvCFbvq0OorO-105" style="edgeStyle=orthogonalEdgeStyle;rounded=0;orthogonalLoop=1;jettySize=auto;html=1;entryX=0.25;entryY=0;entryDx=0;entryDy=0;" edge="1" parent="WIyWlLk6GJQsqaUBKTNV-1" source="j5rkKhJYRvCFbvq0OorO-97" target="j5rkKhJYRvCFbvq0OorO-84">
          <mxGeometry relative="1" as="geometry">
            <Array as="points">
              <mxPoint x="410" y="1065" />
              <mxPoint x="410" y="1140" />
              <mxPoint x="809" y="1140" />
            </Array>
          </mxGeometry>
        </mxCell>
        <mxCell id="j5rkKhJYRvCFbvq0OorO-97" value="PurchaseItem(itemID, num)" style="rounded=0;whiteSpace=wrap;html=1;" vertex="1" parent="WIyWlLk6GJQsqaUBKTNV-1">
          <mxGeometry x="445" y="1050" width="190" height="30" as="geometry" />
        </mxCell>
        <mxCell id="j5rkKhJYRvCFbvq0OorO-98" value="SellItem(itemID, num)" style="rounded=0;whiteSpace=wrap;html=1;" vertex="1" parent="WIyWlLk6GJQsqaUBKTNV-1">
          <mxGeometry x="445" y="1090" width="190" height="30" as="geometry" />
        </mxCell>
        <mxCell id="j5rkKhJYRvCFbvq0OorO-100" style="edgeStyle=orthogonalEdgeStyle;rounded=0;orthogonalLoop=1;jettySize=auto;html=1;entryX=1;entryY=0.75;entryDx=0;entryDy=0;exitX=1;exitY=0.5;exitDx=0;exitDy=0;" edge="1" parent="WIyWlLk6GJQsqaUBKTNV-1" source="j5rkKhJYRvCFbvq0OorO-97" target="j5rkKhJYRvCFbvq0OorO-86">
          <mxGeometry relative="1" as="geometry">
            <mxPoint x="645" y="1075" as="sourcePoint" />
            <mxPoint x="590" y="883" as="targetPoint" />
            <Array as="points">
              <mxPoint x="690" y="1065" />
              <mxPoint x="690" y="913" />
              <mxPoint x="579" y="913" />
            </Array>
          </mxGeometry>
        </mxCell>
        <mxCell id="j5rkKhJYRvCFbvq0OorO-101" style="edgeStyle=orthogonalEdgeStyle;rounded=0;orthogonalLoop=1;jettySize=auto;html=1;entryX=1;entryY=0.75;entryDx=0;entryDy=0;exitX=1;exitY=0.5;exitDx=0;exitDy=0;" edge="1" parent="WIyWlLk6GJQsqaUBKTNV-1" source="j5rkKhJYRvCFbvq0OorO-97" target="j5rkKhJYRvCFbvq0OorO-87">
          <mxGeometry relative="1" as="geometry">
            <mxPoint x="645" y="1075" as="sourcePoint" />
            <mxPoint x="589" y="923" as="targetPoint" />
            <Array as="points">
              <mxPoint x="690" y="1065" />
              <mxPoint x="690" y="953" />
            </Array>
          </mxGeometry>
        </mxCell>
        <mxCell id="j5rkKhJYRvCFbvq0OorO-107" value="Presenter" style="text;html=1;strokeColor=#2D7600;fillColor=#60a917;align=center;verticalAlign=middle;whiteSpace=wrap;rounded=0;fontColor=#ffffff;" vertex="1" parent="WIyWlLk6GJQsqaUBKTNV-1">
          <mxGeometry x="359" y="770" width="160" height="30" as="geometry" />
        </mxCell>
        <mxCell id="j5rkKhJYRvCFbvq0OorO-119" value="PurchaseItemCommand" style="swimlane;fontStyle=1;align=center;verticalAlign=top;childLayout=stackLayout;horizontal=1;startSize=26;horizontalStack=0;resizeParent=1;resizeParentMax=0;resizeLast=0;collapsible=1;marginBottom=0;whiteSpace=wrap;html=1;" vertex="1" parent="WIyWlLk6GJQsqaUBKTNV-1">
          <mxGeometry x="860" y="880" width="250" height="86" as="geometry" />
        </mxCell>
        <mxCell id="j5rkKhJYRvCFbvq0OorO-121" value="" style="line;strokeWidth=1;fillColor=none;align=left;verticalAlign=middle;spacingTop=-1;spacingLeft=3;spacingRight=3;rotatable=0;labelPosition=right;points=[];portConstraint=eastwest;strokeColor=inherit;" vertex="1" parent="j5rkKhJYRvCFbvq0OorO-119">
          <mxGeometry y="26" width="250" height="8" as="geometry" />
        </mxCell>
        <mxCell id="j5rkKhJYRvCFbvq0OorO-120" value="+ CanExecute(itemID, num) : bool" style="text;strokeColor=none;fillColor=none;align=left;verticalAlign=top;spacingLeft=4;spacingRight=4;overflow=hidden;rotatable=0;points=[[0,0.5],[1,0.5]];portConstraint=eastwest;whiteSpace=wrap;html=1;" vertex="1" parent="j5rkKhJYRvCFbvq0OorO-119">
          <mxGeometry y="34" width="250" height="26" as="geometry" />
        </mxCell>
        <mxCell id="j5rkKhJYRvCFbvq0OorO-122" value="+ Execute(itemID, num) : void" style="text;strokeColor=none;fillColor=none;align=left;verticalAlign=top;spacingLeft=4;spacingRight=4;overflow=hidden;rotatable=0;points=[[0,0.5],[1,0.5]];portConstraint=eastwest;whiteSpace=wrap;html=1;" vertex="1" parent="j5rkKhJYRvCFbvq0OorO-119">
          <mxGeometry y="60" width="250" height="26" as="geometry" />
        </mxCell>
        <mxCell id="j5rkKhJYRvCFbvq0OorO-123" value="MVP&lt;br&gt;(Model - View - Presenter)" style="rounded=0;whiteSpace=wrap;html=1;fillColor=#1ba1e2;fontColor=#ffffff;strokeColor=#006EAF;" vertex="1" parent="WIyWlLk6GJQsqaUBKTNV-1">
          <mxGeometry x="10" y="510" width="170" height="60" as="geometry" />
        </mxCell>
        <mxCell id="j5rkKhJYRvCFbvq0OorO-130" style="edgeStyle=orthogonalEdgeStyle;rounded=0;orthogonalLoop=1;jettySize=auto;html=1;" edge="1" parent="WIyWlLk6GJQsqaUBKTNV-1" source="j5rkKhJYRvCFbvq0OorO-125" target="j5rkKhJYRvCFbvq0OorO-127">
          <mxGeometry relative="1" as="geometry">
            <Array as="points">
              <mxPoint x="120" y="710" />
              <mxPoint x="50" y="710" />
            </Array>
          </mxGeometry>
        </mxCell>
        <mxCell id="j5rkKhJYRvCFbvq0OorO-131" style="edgeStyle=orthogonalEdgeStyle;rounded=0;orthogonalLoop=1;jettySize=auto;html=1;" edge="1" parent="WIyWlLk6GJQsqaUBKTNV-1" source="j5rkKhJYRvCFbvq0OorO-125" target="j5rkKhJYRvCFbvq0OorO-128">
          <mxGeometry relative="1" as="geometry">
            <Array as="points">
              <mxPoint x="120" y="710" />
              <mxPoint x="140" y="710" />
            </Array>
          </mxGeometry>
        </mxCell>
        <mxCell id="j5rkKhJYRvCFbvq0OorO-132" style="edgeStyle=orthogonalEdgeStyle;rounded=0;orthogonalLoop=1;jettySize=auto;html=1;" edge="1" parent="WIyWlLk6GJQsqaUBKTNV-1" source="j5rkKhJYRvCFbvq0OorO-125" target="j5rkKhJYRvCFbvq0OorO-129">
          <mxGeometry relative="1" as="geometry">
            <Array as="points">
              <mxPoint x="120" y="710" />
              <mxPoint x="230" y="710" />
            </Array>
          </mxGeometry>
        </mxCell>
        <mxCell id="j5rkKhJYRvCFbvq0OorO-133" style="edgeStyle=orthogonalEdgeStyle;rounded=0;orthogonalLoop=1;jettySize=auto;html=1;entryX=0.75;entryY=1;entryDx=0;entryDy=0;exitX=0.75;exitY=0;exitDx=0;exitDy=0;dashed=1;" edge="1" parent="WIyWlLk6GJQsqaUBKTNV-1" source="j5rkKhJYRvCFbvq0OorO-125" target="j5rkKhJYRvCFbvq0OorO-126">
          <mxGeometry relative="1" as="geometry" />
        </mxCell>
        <mxCell id="j5rkKhJYRvCFbvq0OorO-125" value="Presenter" style="text;html=1;strokeColor=#2D7600;fillColor=#60a917;align=center;verticalAlign=middle;whiteSpace=wrap;rounded=0;fontColor=#ffffff;" vertex="1" parent="WIyWlLk6GJQsqaUBKTNV-1">
          <mxGeometry x="80" y="650" width="80" height="30" as="geometry" />
        </mxCell>
        <mxCell id="j5rkKhJYRvCFbvq0OorO-135" style="edgeStyle=orthogonalEdgeStyle;rounded=0;orthogonalLoop=1;jettySize=auto;html=1;entryX=0.25;entryY=0;entryDx=0;entryDy=0;" edge="1" parent="WIyWlLk6GJQsqaUBKTNV-1" source="j5rkKhJYRvCFbvq0OorO-126" target="j5rkKhJYRvCFbvq0OorO-125">
          <mxGeometry relative="1" as="geometry">
            <Array as="points">
              <mxPoint x="100" y="630" />
              <mxPoint x="100" y="630" />
            </Array>
          </mxGeometry>
        </mxCell>
        <mxCell id="j5rkKhJYRvCFbvq0OorO-126" value="View" style="text;html=1;strokeColor=#2D7600;fillColor=#60a917;align=center;verticalAlign=middle;whiteSpace=wrap;rounded=0;fontColor=#ffffff;" vertex="1" parent="WIyWlLk6GJQsqaUBKTNV-1">
          <mxGeometry x="80" y="582.5" width="80" height="30" as="geometry" />
        </mxCell>
        <mxCell id="j5rkKhJYRvCFbvq0OorO-127" value="DataModel" style="text;html=1;strokeColor=#2D7600;fillColor=#60a917;align=center;verticalAlign=middle;whiteSpace=wrap;rounded=0;fontColor=#ffffff;" vertex="1" parent="WIyWlLk6GJQsqaUBKTNV-1">
          <mxGeometry x="10" y="730" width="80" height="30" as="geometry" />
        </mxCell>
        <mxCell id="j5rkKhJYRvCFbvq0OorO-128" value="DataModel" style="text;html=1;strokeColor=#2D7600;fillColor=#60a917;align=center;verticalAlign=middle;whiteSpace=wrap;rounded=0;fontColor=#ffffff;" vertex="1" parent="WIyWlLk6GJQsqaUBKTNV-1">
          <mxGeometry x="100" y="730" width="80" height="30" as="geometry" />
        </mxCell>
        <mxCell id="j5rkKhJYRvCFbvq0OorO-129" value="DataModel" style="text;html=1;strokeColor=#2D7600;fillColor=#60a917;align=center;verticalAlign=middle;whiteSpace=wrap;rounded=0;fontColor=#ffffff;" vertex="1" parent="WIyWlLk6GJQsqaUBKTNV-1">
          <mxGeometry x="190" y="730" width="80" height="30" as="geometry" />
        </mxCell>
        <mxCell id="j5rkKhJYRvCFbvq0OorO-136" value="Notification" style="text;html=1;strokeColor=none;fillColor=none;align=center;verticalAlign=middle;whiteSpace=wrap;rounded=0;" vertex="1" parent="WIyWlLk6GJQsqaUBKTNV-1">
          <mxGeometry x="150" y="622.5" width="60" height="25" as="geometry" />
        </mxCell>
        <mxCell id="j5rkKhJYRvCFbvq0OorO-137" value="1" style="text;html=1;strokeColor=none;fillColor=none;align=center;verticalAlign=middle;whiteSpace=wrap;rounded=0;" vertex="1" parent="WIyWlLk6GJQsqaUBKTNV-1">
          <mxGeometry x="60" y="592.5" width="20" height="27.5" as="geometry" />
        </mxCell>
        <mxCell id="j5rkKhJYRvCFbvq0OorO-138" value="1" style="text;html=1;strokeColor=none;fillColor=none;align=center;verticalAlign=middle;whiteSpace=wrap;rounded=0;" vertex="1" parent="WIyWlLk6GJQsqaUBKTNV-1">
          <mxGeometry x="60" y="631.25" width="20" height="27.5" as="geometry" />
        </mxCell>
        <mxCell id="j5rkKhJYRvCFbvq0OorO-139" style="edgeStyle=orthogonalEdgeStyle;rounded=0;orthogonalLoop=1;jettySize=auto;html=1;entryX=0.75;entryY=1;entryDx=0;entryDy=0;exitX=0.25;exitY=0;exitDx=0;exitDy=0;dashed=1;" edge="1" parent="WIyWlLk6GJQsqaUBKTNV-1" source="j5rkKhJYRvCFbvq0OorO-129" target="j5rkKhJYRvCFbvq0OorO-125">
          <mxGeometry relative="1" as="geometry">
            <mxPoint x="150" y="660" as="sourcePoint" />
            <mxPoint x="150" y="623" as="targetPoint" />
            <Array as="points">
              <mxPoint x="210" y="700" />
              <mxPoint x="140" y="700" />
            </Array>
          </mxGeometry>
        </mxCell>
        <mxCell id="j5rkKhJYRvCFbvq0OorO-140" style="edgeStyle=orthogonalEdgeStyle;rounded=0;orthogonalLoop=1;jettySize=auto;html=1;entryX=0.75;entryY=1;entryDx=0;entryDy=0;exitX=0.25;exitY=0;exitDx=0;exitDy=0;dashed=1;" edge="1" parent="WIyWlLk6GJQsqaUBKTNV-1" source="j5rkKhJYRvCFbvq0OorO-128" target="j5rkKhJYRvCFbvq0OorO-125">
          <mxGeometry relative="1" as="geometry">
            <mxPoint x="220" y="740" as="sourcePoint" />
            <mxPoint x="150" y="690" as="targetPoint" />
            <Array as="points">
              <mxPoint x="120" y="700" />
              <mxPoint x="140" y="700" />
            </Array>
          </mxGeometry>
        </mxCell>
        <mxCell id="j5rkKhJYRvCFbvq0OorO-141" style="edgeStyle=orthogonalEdgeStyle;rounded=0;orthogonalLoop=1;jettySize=auto;html=1;entryX=0.75;entryY=1;entryDx=0;entryDy=0;exitX=0.25;exitY=0;exitDx=0;exitDy=0;dashed=1;" edge="1" parent="WIyWlLk6GJQsqaUBKTNV-1" source="j5rkKhJYRvCFbvq0OorO-127" target="j5rkKhJYRvCFbvq0OorO-125">
          <mxGeometry relative="1" as="geometry">
            <mxPoint x="220" y="740" as="sourcePoint" />
            <mxPoint x="150" y="690" as="targetPoint" />
            <Array as="points">
              <mxPoint x="30" y="700" />
              <mxPoint x="140" y="700" />
            </Array>
          </mxGeometry>
        </mxCell>
        <mxCell id="j5rkKhJYRvCFbvq0OorO-142" value="MVVM&lt;br&gt;(Model - View - ViewModel)" style="rounded=0;whiteSpace=wrap;html=1;fillColor=#1ba1e2;fontColor=#ffffff;strokeColor=#006EAF;" vertex="1" parent="WIyWlLk6GJQsqaUBKTNV-1">
          <mxGeometry x="10" y="1280" width="170" height="60" as="geometry" />
        </mxCell>
        <mxCell id="j5rkKhJYRvCFbvq0OorO-143" value="" style="rounded=0;whiteSpace=wrap;html=1;" vertex="1" parent="WIyWlLk6GJQsqaUBKTNV-1">
          <mxGeometry x="364.5" y="1480" width="481" height="330" as="geometry" />
        </mxCell>
        <mxCell id="j5rkKhJYRvCFbvq0OorO-144" value="" style="rounded=0;whiteSpace=wrap;html=1;" vertex="1" parent="WIyWlLk6GJQsqaUBKTNV-1">
          <mxGeometry x="359" y="1380" width="351" height="50" as="geometry" />
        </mxCell>
        <mxCell id="j5rkKhJYRvCFbvq0OorO-145" value="Assets (View)" style="text;html=1;strokeColor=#2D7600;fillColor=#60a917;align=center;verticalAlign=middle;whiteSpace=wrap;rounded=0;fontColor=#ffffff;" vertex="1" parent="WIyWlLk6GJQsqaUBKTNV-1">
          <mxGeometry x="359" y="1350" width="160" height="30" as="geometry" />
        </mxCell>
        <mxCell id="j5rkKhJYRvCFbvq0OorO-157" value="200" style="rounded=0;whiteSpace=wrap;html=1;align=right;" vertex="1" parent="WIyWlLk6GJQsqaUBKTNV-1">
          <mxGeometry x="364" y="1387.5" width="95" height="32.5" as="geometry" />
        </mxCell>
        <mxCell id="j5rkKhJYRvCFbvq0OorO-158" value="" style="whiteSpace=wrap;html=1;aspect=fixed;" vertex="1" parent="WIyWlLk6GJQsqaUBKTNV-1">
          <mxGeometry x="369" y="1392.5" width="25" height="25" as="geometry" />
        </mxCell>
        <mxCell id="j5rkKhJYRvCFbvq0OorO-159" value="" style="shape=cylinder3;whiteSpace=wrap;html=1;boundedLbl=1;backgroundOutline=1;size=2.693099453392051;rotation=-45;fillColor=#e51400;fontColor=#ffffff;strokeColor=#B20000;" vertex="1" parent="WIyWlLk6GJQsqaUBKTNV-1">
          <mxGeometry x="373" y="1397.5" width="15" height="15" as="geometry" />
        </mxCell>
        <mxCell id="j5rkKhJYRvCFbvq0OorO-170" value="DependencySource" style="text;html=1;strokeColor=#BD7000;fillColor=#f0a30a;align=center;verticalAlign=middle;whiteSpace=wrap;rounded=0;fontColor=#000000;" vertex="1" parent="WIyWlLk6GJQsqaUBKTNV-1">
          <mxGeometry x="375.5" y="1490" width="160" height="30" as="geometry" />
        </mxCell>
        <mxCell id="j5rkKhJYRvCFbvq0OorO-171" style="edgeStyle=orthogonalEdgeStyle;rounded=0;orthogonalLoop=1;jettySize=auto;html=1;entryX=0;entryY=0.5;entryDx=0;entryDy=0;dashed=1;" edge="1" parent="WIyWlLk6GJQsqaUBKTNV-1" source="j5rkKhJYRvCFbvq0OorO-172" target="j5rkKhJYRvCFbvq0OorO-177">
          <mxGeometry relative="1" as="geometry">
            <Array as="points">
              <mxPoint x="375.5" y="1545" />
            </Array>
          </mxGeometry>
        </mxCell>
        <mxCell id="j5rkKhJYRvCFbvq0OorO-172" value="RedGem Data" style="text;html=1;strokeColor=#2D7600;fillColor=#60a917;align=center;verticalAlign=middle;whiteSpace=wrap;rounded=0;fontColor=#ffffff;" vertex="1" parent="WIyWlLk6GJQsqaUBKTNV-1">
          <mxGeometry x="374.5" y="1869" width="160" height="30" as="geometry" />
        </mxCell>
        <mxCell id="j5rkKhJYRvCFbvq0OorO-173" style="edgeStyle=orthogonalEdgeStyle;rounded=0;orthogonalLoop=1;jettySize=auto;html=1;entryX=0;entryY=0.5;entryDx=0;entryDy=0;dashed=1;" edge="1" parent="WIyWlLk6GJQsqaUBKTNV-1" source="j5rkKhJYRvCFbvq0OorO-174" target="j5rkKhJYRvCFbvq0OorO-179">
          <mxGeometry relative="1" as="geometry">
            <Array as="points">
              <mxPoint x="657.5" y="1850" />
              <mxPoint x="375.5" y="1850" />
              <mxPoint x="375.5" y="1660" />
              <mxPoint x="374.5" y="1660" />
              <mxPoint x="374.5" y="1585" />
            </Array>
          </mxGeometry>
        </mxCell>
        <mxCell id="j5rkKhJYRvCFbvq0OorO-174" value="GrayGem Data" style="text;html=1;strokeColor=#2D7600;fillColor=#60a917;align=center;verticalAlign=middle;whiteSpace=wrap;rounded=0;fontColor=#ffffff;" vertex="1" parent="WIyWlLk6GJQsqaUBKTNV-1">
          <mxGeometry x="577.5" y="1869" width="160" height="30" as="geometry" />
        </mxCell>
        <mxCell id="j5rkKhJYRvCFbvq0OorO-175" value="YellowGem Data" style="text;html=1;strokeColor=#2D7600;fillColor=#60a917;align=center;verticalAlign=middle;whiteSpace=wrap;rounded=0;fontColor=#ffffff;" vertex="1" parent="WIyWlLk6GJQsqaUBKTNV-1">
          <mxGeometry x="774.5" y="1869" width="160" height="30" as="geometry" />
        </mxCell>
        <mxCell id="j5rkKhJYRvCFbvq0OorO-176" style="edgeStyle=orthogonalEdgeStyle;rounded=0;orthogonalLoop=1;jettySize=auto;html=1;entryX=1;entryY=0.5;entryDx=0;entryDy=0;dashed=1;" edge="1" parent="WIyWlLk6GJQsqaUBKTNV-1" source="j5rkKhJYRvCFbvq0OorO-177" target="j5rkKhJYRvCFbvq0OorO-145">
          <mxGeometry relative="1" as="geometry">
            <Array as="points">
              <mxPoint x="786" y="1545" />
              <mxPoint x="786" y="1365" />
            </Array>
          </mxGeometry>
        </mxCell>
        <mxCell id="j5rkKhJYRvCFbvq0OorO-177" value="RedGem Source" style="rounded=0;whiteSpace=wrap;html=1;" vertex="1" parent="WIyWlLk6GJQsqaUBKTNV-1">
          <mxGeometry x="395.5" y="1530" width="190" height="30" as="geometry" />
        </mxCell>
        <mxCell id="j5rkKhJYRvCFbvq0OorO-178" style="edgeStyle=orthogonalEdgeStyle;rounded=0;orthogonalLoop=1;jettySize=auto;html=1;entryX=1;entryY=0.5;entryDx=0;entryDy=0;dashed=1;" edge="1" parent="WIyWlLk6GJQsqaUBKTNV-1" source="j5rkKhJYRvCFbvq0OorO-179" target="j5rkKhJYRvCFbvq0OorO-145">
          <mxGeometry relative="1" as="geometry">
            <Array as="points">
              <mxPoint x="786" y="1585" />
              <mxPoint x="786" y="1365" />
            </Array>
          </mxGeometry>
        </mxCell>
        <mxCell id="j5rkKhJYRvCFbvq0OorO-179" value="GrayGem Source" style="rounded=0;whiteSpace=wrap;html=1;" vertex="1" parent="WIyWlLk6GJQsqaUBKTNV-1">
          <mxGeometry x="394.5" y="1570" width="190" height="30" as="geometry" />
        </mxCell>
        <mxCell id="j5rkKhJYRvCFbvq0OorO-180" style="edgeStyle=orthogonalEdgeStyle;rounded=0;orthogonalLoop=1;jettySize=auto;html=1;entryX=1;entryY=0.5;entryDx=0;entryDy=0;dashed=1;" edge="1" parent="WIyWlLk6GJQsqaUBKTNV-1" source="j5rkKhJYRvCFbvq0OorO-181" target="j5rkKhJYRvCFbvq0OorO-145">
          <mxGeometry relative="1" as="geometry">
            <Array as="points">
              <mxPoint x="786" y="1625" />
              <mxPoint x="786" y="1365" />
            </Array>
          </mxGeometry>
        </mxCell>
        <mxCell id="j5rkKhJYRvCFbvq0OorO-181" value="YellowGem Source" style="rounded=0;whiteSpace=wrap;html=1;" vertex="1" parent="WIyWlLk6GJQsqaUBKTNV-1">
          <mxGeometry x="395.5" y="1610" width="190" height="30" as="geometry" />
        </mxCell>
        <mxCell id="j5rkKhJYRvCFbvq0OorO-182" style="edgeStyle=orthogonalEdgeStyle;rounded=0;orthogonalLoop=1;jettySize=auto;html=1;entryX=0;entryY=0.5;entryDx=0;entryDy=0;exitX=0.5;exitY=0;exitDx=0;exitDy=0;dashed=1;" edge="1" parent="WIyWlLk6GJQsqaUBKTNV-1" source="j5rkKhJYRvCFbvq0OorO-175" target="j5rkKhJYRvCFbvq0OorO-181">
          <mxGeometry relative="1" as="geometry">
            <mxPoint x="667.5" y="1730" as="sourcePoint" />
            <mxPoint x="404.5" y="1595" as="targetPoint" />
            <Array as="points">
              <mxPoint x="854.5" y="1850" />
              <mxPoint x="375.5" y="1850" />
              <mxPoint x="375.5" y="1625" />
            </Array>
          </mxGeometry>
        </mxCell>
        <mxCell id="j5rkKhJYRvCFbvq0OorO-183" value="Notification" style="text;html=1;strokeColor=none;fillColor=none;align=center;verticalAlign=middle;whiteSpace=wrap;rounded=0;" vertex="1" parent="WIyWlLk6GJQsqaUBKTNV-1">
          <mxGeometry x="379.5" y="1650" width="60" height="30" as="geometry" />
        </mxCell>
        <mxCell id="j5rkKhJYRvCFbvq0OorO-185" value="Commands" style="text;html=1;strokeColor=#BD7000;fillColor=#f0a30a;align=center;verticalAlign=middle;whiteSpace=wrap;rounded=0;fontColor=#000000;" vertex="1" parent="WIyWlLk6GJQsqaUBKTNV-1">
          <mxGeometry x="424.5" y="1690" width="160" height="30" as="geometry" />
        </mxCell>
        <mxCell id="j5rkKhJYRvCFbvq0OorO-186" style="edgeStyle=orthogonalEdgeStyle;rounded=0;orthogonalLoop=1;jettySize=auto;html=1;entryX=1;entryY=0.75;entryDx=0;entryDy=0;" edge="1" parent="WIyWlLk6GJQsqaUBKTNV-1" source="j5rkKhJYRvCFbvq0OorO-190" target="j5rkKhJYRvCFbvq0OorO-177">
          <mxGeometry relative="1" as="geometry">
            <Array as="points">
              <mxPoint x="695.5" y="1745" />
              <mxPoint x="695.5" y="1553" />
              <mxPoint x="585.5" y="1553" />
            </Array>
          </mxGeometry>
        </mxCell>
        <mxCell id="j5rkKhJYRvCFbvq0OorO-187" style="edgeStyle=orthogonalEdgeStyle;rounded=0;orthogonalLoop=1;jettySize=auto;html=1;entryX=0.25;entryY=0;entryDx=0;entryDy=0;" edge="1" parent="WIyWlLk6GJQsqaUBKTNV-1" source="j5rkKhJYRvCFbvq0OorO-190" target="j5rkKhJYRvCFbvq0OorO-172">
          <mxGeometry relative="1" as="geometry">
            <Array as="points">
              <mxPoint x="414.5" y="1745" />
            </Array>
          </mxGeometry>
        </mxCell>
        <mxCell id="j5rkKhJYRvCFbvq0OorO-188" style="edgeStyle=orthogonalEdgeStyle;rounded=0;orthogonalLoop=1;jettySize=auto;html=1;entryX=0.25;entryY=0;entryDx=0;entryDy=0;" edge="1" parent="WIyWlLk6GJQsqaUBKTNV-1" source="j5rkKhJYRvCFbvq0OorO-190" target="j5rkKhJYRvCFbvq0OorO-174">
          <mxGeometry relative="1" as="geometry">
            <Array as="points">
              <mxPoint x="415.5" y="1745" />
              <mxPoint x="415.5" y="1820" />
              <mxPoint x="617.5" y="1820" />
            </Array>
          </mxGeometry>
        </mxCell>
        <mxCell id="j5rkKhJYRvCFbvq0OorO-189" style="edgeStyle=orthogonalEdgeStyle;rounded=0;orthogonalLoop=1;jettySize=auto;html=1;entryX=0.25;entryY=0;entryDx=0;entryDy=0;" edge="1" parent="WIyWlLk6GJQsqaUBKTNV-1" source="j5rkKhJYRvCFbvq0OorO-190" target="j5rkKhJYRvCFbvq0OorO-175">
          <mxGeometry relative="1" as="geometry">
            <Array as="points">
              <mxPoint x="415.5" y="1745" />
              <mxPoint x="415.5" y="1820" />
              <mxPoint x="814.5" y="1820" />
            </Array>
          </mxGeometry>
        </mxCell>
        <mxCell id="j5rkKhJYRvCFbvq0OorO-190" value="PurchaseRedGem()" style="rounded=0;whiteSpace=wrap;html=1;" vertex="1" parent="WIyWlLk6GJQsqaUBKTNV-1">
          <mxGeometry x="450.5" y="1730" width="190" height="30" as="geometry" />
        </mxCell>
        <mxCell id="j5rkKhJYRvCFbvq0OorO-191" value="PurchaseGrayGem()" style="rounded=0;whiteSpace=wrap;html=1;" vertex="1" parent="WIyWlLk6GJQsqaUBKTNV-1">
          <mxGeometry x="450.5" y="1770" width="190" height="30" as="geometry" />
        </mxCell>
        <mxCell id="j5rkKhJYRvCFbvq0OorO-192" style="edgeStyle=orthogonalEdgeStyle;rounded=0;orthogonalLoop=1;jettySize=auto;html=1;entryX=1;entryY=0.75;entryDx=0;entryDy=0;exitX=1;exitY=0.5;exitDx=0;exitDy=0;" edge="1" parent="WIyWlLk6GJQsqaUBKTNV-1" source="j5rkKhJYRvCFbvq0OorO-190" target="j5rkKhJYRvCFbvq0OorO-179">
          <mxGeometry relative="1" as="geometry">
            <mxPoint x="650.5" y="1755" as="sourcePoint" />
            <mxPoint x="595.5" y="1563" as="targetPoint" />
            <Array as="points">
              <mxPoint x="695.5" y="1745" />
              <mxPoint x="695.5" y="1593" />
              <mxPoint x="584.5" y="1593" />
            </Array>
          </mxGeometry>
        </mxCell>
        <mxCell id="j5rkKhJYRvCFbvq0OorO-193" style="edgeStyle=orthogonalEdgeStyle;rounded=0;orthogonalLoop=1;jettySize=auto;html=1;entryX=1;entryY=0.75;entryDx=0;entryDy=0;exitX=1;exitY=0.5;exitDx=0;exitDy=0;" edge="1" parent="WIyWlLk6GJQsqaUBKTNV-1" source="j5rkKhJYRvCFbvq0OorO-190" target="j5rkKhJYRvCFbvq0OorO-181">
          <mxGeometry relative="1" as="geometry">
            <mxPoint x="650.5" y="1755" as="sourcePoint" />
            <mxPoint x="594.5" y="1603" as="targetPoint" />
            <Array as="points">
              <mxPoint x="695.5" y="1745" />
              <mxPoint x="695.5" y="1633" />
            </Array>
          </mxGeometry>
        </mxCell>
        <mxCell id="j5rkKhJYRvCFbvq0OorO-194" value="ViewModel" style="text;html=1;strokeColor=#2D7600;fillColor=#60a917;align=center;verticalAlign=middle;whiteSpace=wrap;rounded=0;fontColor=#ffffff;" vertex="1" parent="WIyWlLk6GJQsqaUBKTNV-1">
          <mxGeometry x="364.5" y="1450" width="160" height="30" as="geometry" />
        </mxCell>
        <mxCell id="j5rkKhJYRvCFbvq0OorO-195" style="edgeStyle=orthogonalEdgeStyle;rounded=0;orthogonalLoop=1;jettySize=auto;html=1;" edge="1" parent="WIyWlLk6GJQsqaUBKTNV-1" source="j5rkKhJYRvCFbvq0OorO-199" target="j5rkKhJYRvCFbvq0OorO-202">
          <mxGeometry relative="1" as="geometry">
            <Array as="points">
              <mxPoint x="130" y="1487.5" />
              <mxPoint x="60" y="1487.5" />
            </Array>
          </mxGeometry>
        </mxCell>
        <mxCell id="j5rkKhJYRvCFbvq0OorO-196" style="edgeStyle=orthogonalEdgeStyle;rounded=0;orthogonalLoop=1;jettySize=auto;html=1;" edge="1" parent="WIyWlLk6GJQsqaUBKTNV-1" source="j5rkKhJYRvCFbvq0OorO-199" target="j5rkKhJYRvCFbvq0OorO-203">
          <mxGeometry relative="1" as="geometry">
            <Array as="points">
              <mxPoint x="130" y="1487.5" />
              <mxPoint x="150" y="1487.5" />
            </Array>
          </mxGeometry>
        </mxCell>
        <mxCell id="j5rkKhJYRvCFbvq0OorO-197" style="edgeStyle=orthogonalEdgeStyle;rounded=0;orthogonalLoop=1;jettySize=auto;html=1;" edge="1" parent="WIyWlLk6GJQsqaUBKTNV-1" source="j5rkKhJYRvCFbvq0OorO-199" target="j5rkKhJYRvCFbvq0OorO-204">
          <mxGeometry relative="1" as="geometry">
            <Array as="points">
              <mxPoint x="130" y="1487.5" />
              <mxPoint x="240" y="1487.5" />
            </Array>
          </mxGeometry>
        </mxCell>
        <mxCell id="j5rkKhJYRvCFbvq0OorO-198" style="edgeStyle=orthogonalEdgeStyle;rounded=0;orthogonalLoop=1;jettySize=auto;html=1;entryX=0.75;entryY=1;entryDx=0;entryDy=0;exitX=0.75;exitY=0;exitDx=0;exitDy=0;dashed=1;" edge="1" parent="WIyWlLk6GJQsqaUBKTNV-1" source="j5rkKhJYRvCFbvq0OorO-199" target="j5rkKhJYRvCFbvq0OorO-201">
          <mxGeometry relative="1" as="geometry" />
        </mxCell>
        <mxCell id="j5rkKhJYRvCFbvq0OorO-199" value="ViewModel" style="text;html=1;strokeColor=#2D7600;fillColor=#60a917;align=center;verticalAlign=middle;whiteSpace=wrap;rounded=0;fontColor=#ffffff;" vertex="1" parent="WIyWlLk6GJQsqaUBKTNV-1">
          <mxGeometry x="90" y="1427.5" width="80" height="30" as="geometry" />
        </mxCell>
        <mxCell id="j5rkKhJYRvCFbvq0OorO-200" style="edgeStyle=orthogonalEdgeStyle;rounded=0;orthogonalLoop=1;jettySize=auto;html=1;entryX=0.25;entryY=0;entryDx=0;entryDy=0;" edge="1" parent="WIyWlLk6GJQsqaUBKTNV-1" source="j5rkKhJYRvCFbvq0OorO-201" target="j5rkKhJYRvCFbvq0OorO-199">
          <mxGeometry relative="1" as="geometry">
            <Array as="points">
              <mxPoint x="110" y="1407.5" />
              <mxPoint x="110" y="1407.5" />
            </Array>
          </mxGeometry>
        </mxCell>
        <mxCell id="j5rkKhJYRvCFbvq0OorO-201" value="View" style="text;html=1;strokeColor=#2D7600;fillColor=#60a917;align=center;verticalAlign=middle;whiteSpace=wrap;rounded=0;fontColor=#ffffff;" vertex="1" parent="WIyWlLk6GJQsqaUBKTNV-1">
          <mxGeometry x="90" y="1360" width="80" height="30" as="geometry" />
        </mxCell>
        <mxCell id="j5rkKhJYRvCFbvq0OorO-202" value="DataModel" style="text;html=1;strokeColor=#2D7600;fillColor=#60a917;align=center;verticalAlign=middle;whiteSpace=wrap;rounded=0;fontColor=#ffffff;" vertex="1" parent="WIyWlLk6GJQsqaUBKTNV-1">
          <mxGeometry x="20" y="1507.5" width="80" height="30" as="geometry" />
        </mxCell>
        <mxCell id="j5rkKhJYRvCFbvq0OorO-203" value="DataModel" style="text;html=1;strokeColor=#2D7600;fillColor=#60a917;align=center;verticalAlign=middle;whiteSpace=wrap;rounded=0;fontColor=#ffffff;" vertex="1" parent="WIyWlLk6GJQsqaUBKTNV-1">
          <mxGeometry x="110" y="1507.5" width="80" height="30" as="geometry" />
        </mxCell>
        <mxCell id="j5rkKhJYRvCFbvq0OorO-204" value="DataModel" style="text;html=1;strokeColor=#2D7600;fillColor=#60a917;align=center;verticalAlign=middle;whiteSpace=wrap;rounded=0;fontColor=#ffffff;" vertex="1" parent="WIyWlLk6GJQsqaUBKTNV-1">
          <mxGeometry x="200" y="1507.5" width="80" height="30" as="geometry" />
        </mxCell>
        <mxCell id="j5rkKhJYRvCFbvq0OorO-205" value="Notification" style="text;html=1;strokeColor=none;fillColor=none;align=center;verticalAlign=middle;whiteSpace=wrap;rounded=0;" vertex="1" parent="WIyWlLk6GJQsqaUBKTNV-1">
          <mxGeometry x="160" y="1400" width="60" height="25" as="geometry" />
        </mxCell>
        <mxCell id="j5rkKhJYRvCFbvq0OorO-206" value="n" style="text;html=1;strokeColor=none;fillColor=none;align=center;verticalAlign=middle;whiteSpace=wrap;rounded=0;" vertex="1" parent="WIyWlLk6GJQsqaUBKTNV-1">
          <mxGeometry x="70" y="1370" width="20" height="27.5" as="geometry" />
        </mxCell>
        <mxCell id="j5rkKhJYRvCFbvq0OorO-207" value="1" style="text;html=1;strokeColor=none;fillColor=none;align=center;verticalAlign=middle;whiteSpace=wrap;rounded=0;" vertex="1" parent="WIyWlLk6GJQsqaUBKTNV-1">
          <mxGeometry x="70" y="1408.75" width="20" height="27.5" as="geometry" />
        </mxCell>
        <mxCell id="j5rkKhJYRvCFbvq0OorO-208" style="edgeStyle=orthogonalEdgeStyle;rounded=0;orthogonalLoop=1;jettySize=auto;html=1;entryX=0.75;entryY=1;entryDx=0;entryDy=0;exitX=0.25;exitY=0;exitDx=0;exitDy=0;dashed=1;" edge="1" parent="WIyWlLk6GJQsqaUBKTNV-1" source="j5rkKhJYRvCFbvq0OorO-204" target="j5rkKhJYRvCFbvq0OorO-199">
          <mxGeometry relative="1" as="geometry">
            <mxPoint x="160" y="1437.5" as="sourcePoint" />
            <mxPoint x="160" y="1400.5" as="targetPoint" />
            <Array as="points">
              <mxPoint x="220" y="1477.5" />
              <mxPoint x="150" y="1477.5" />
            </Array>
          </mxGeometry>
        </mxCell>
        <mxCell id="j5rkKhJYRvCFbvq0OorO-209" style="edgeStyle=orthogonalEdgeStyle;rounded=0;orthogonalLoop=1;jettySize=auto;html=1;entryX=0.75;entryY=1;entryDx=0;entryDy=0;exitX=0.25;exitY=0;exitDx=0;exitDy=0;dashed=1;" edge="1" parent="WIyWlLk6GJQsqaUBKTNV-1" source="j5rkKhJYRvCFbvq0OorO-203" target="j5rkKhJYRvCFbvq0OorO-199">
          <mxGeometry relative="1" as="geometry">
            <mxPoint x="230" y="1517.5" as="sourcePoint" />
            <mxPoint x="160" y="1467.5" as="targetPoint" />
            <Array as="points">
              <mxPoint x="130" y="1477.5" />
              <mxPoint x="150" y="1477.5" />
            </Array>
          </mxGeometry>
        </mxCell>
        <mxCell id="j5rkKhJYRvCFbvq0OorO-210" style="edgeStyle=orthogonalEdgeStyle;rounded=0;orthogonalLoop=1;jettySize=auto;html=1;entryX=0.75;entryY=1;entryDx=0;entryDy=0;exitX=0.25;exitY=0;exitDx=0;exitDy=0;dashed=1;" edge="1" parent="WIyWlLk6GJQsqaUBKTNV-1" source="j5rkKhJYRvCFbvq0OorO-202" target="j5rkKhJYRvCFbvq0OorO-199">
          <mxGeometry relative="1" as="geometry">
            <mxPoint x="230" y="1517.5" as="sourcePoint" />
            <mxPoint x="160" y="1467.5" as="targetPoint" />
            <Array as="points">
              <mxPoint x="40" y="1477.5" />
              <mxPoint x="150" y="1477.5" />
            </Array>
          </mxGeometry>
        </mxCell>
        <mxCell id="j5rkKhJYRvCFbvq0OorO-213" value="400" style="rounded=0;whiteSpace=wrap;html=1;align=right;" vertex="1" parent="WIyWlLk6GJQsqaUBKTNV-1">
          <mxGeometry x="466" y="1387.5" width="95" height="32.5" as="geometry" />
        </mxCell>
        <mxCell id="j5rkKhJYRvCFbvq0OorO-214" value="" style="whiteSpace=wrap;html=1;aspect=fixed;" vertex="1" parent="WIyWlLk6GJQsqaUBKTNV-1">
          <mxGeometry x="471" y="1392.5" width="25" height="25" as="geometry" />
        </mxCell>
        <mxCell id="j5rkKhJYRvCFbvq0OorO-215" value="" style="shape=cylinder3;whiteSpace=wrap;html=1;boundedLbl=1;backgroundOutline=1;size=2.693099453392051;rotation=-45;fillColor=#647687;fontColor=#ffffff;strokeColor=#314354;" vertex="1" parent="WIyWlLk6GJQsqaUBKTNV-1">
          <mxGeometry x="475" y="1397.5" width="15" height="15" as="geometry" />
        </mxCell>
        <mxCell id="j5rkKhJYRvCFbvq0OorO-216" value="10" style="rounded=0;whiteSpace=wrap;html=1;align=right;" vertex="1" parent="WIyWlLk6GJQsqaUBKTNV-1">
          <mxGeometry x="566.5" y="1387.5" width="95" height="32.5" as="geometry" />
        </mxCell>
        <mxCell id="j5rkKhJYRvCFbvq0OorO-217" value="" style="whiteSpace=wrap;html=1;aspect=fixed;" vertex="1" parent="WIyWlLk6GJQsqaUBKTNV-1">
          <mxGeometry x="571.5" y="1392.5" width="25" height="25" as="geometry" />
        </mxCell>
        <mxCell id="j5rkKhJYRvCFbvq0OorO-218" value="" style="shape=cylinder3;whiteSpace=wrap;html=1;boundedLbl=1;backgroundOutline=1;size=2.693099453392051;rotation=-45;fillColor=#f0a30a;fontColor=#000000;strokeColor=#BD7000;" vertex="1" parent="WIyWlLk6GJQsqaUBKTNV-1">
          <mxGeometry x="575.5" y="1397.5" width="15" height="15" as="geometry" />
        </mxCell>
        <mxCell id="j5rkKhJYRvCFbvq0OorO-219" value="Binding" style="text;html=1;strokeColor=none;fillColor=none;align=center;verticalAlign=middle;whiteSpace=wrap;rounded=0;" vertex="1" parent="WIyWlLk6GJQsqaUBKTNV-1">
          <mxGeometry x="732" y="1430" width="60" height="30" as="geometry" />
        </mxCell>
        <mxCell id="j5rkKhJYRvCFbvq0OorO-220" value="ObservableCollection&amp;lt;Pair&amp;lt;T&amp;gt;&amp;gt;" style="swimlane;fontStyle=1;align=center;verticalAlign=top;childLayout=stackLayout;horizontal=1;startSize=26;horizontalStack=0;resizeParent=1;resizeParentMax=0;resizeLast=0;collapsible=1;marginBottom=0;whiteSpace=wrap;html=1;" vertex="1" parent="WIyWlLk6GJQsqaUBKTNV-1">
          <mxGeometry x="1140" y="877" width="290" height="238" as="geometry" />
        </mxCell>
        <mxCell id="j5rkKhJYRvCFbvq0OorO-223" value="+ items : Pair&amp;lt;T&amp;gt;[]" style="text;strokeColor=none;fillColor=none;align=left;verticalAlign=top;spacingLeft=4;spacingRight=4;overflow=hidden;rotatable=0;points=[[0,0.5],[1,0.5]];portConstraint=eastwest;whiteSpace=wrap;html=1;" vertex="1" parent="j5rkKhJYRvCFbvq0OorO-220">
          <mxGeometry y="26" width="290" height="26" as="geometry" />
        </mxCell>
        <mxCell id="j5rkKhJYRvCFbvq0OorO-232" value="&amp;nbsp;&amp;lt;&amp;lt;event&amp;gt;&amp;gt; + OnItemChanged : Action&amp;lt;int, T&amp;gt;" style="text;strokeColor=none;fillColor=none;align=left;verticalAlign=top;spacingLeft=4;spacingRight=4;overflow=hidden;rotatable=0;points=[[0,0.5],[1,0.5]];portConstraint=eastwest;whiteSpace=wrap;html=1;" vertex="1" parent="j5rkKhJYRvCFbvq0OorO-220">
          <mxGeometry y="52" width="290" height="25" as="geometry" />
        </mxCell>
        <mxCell id="j5rkKhJYRvCFbvq0OorO-233" value="&amp;nbsp;&amp;lt;&amp;lt;event&amp;gt;&amp;gt; + OnItemAdded : Action&amp;lt;int, T&amp;gt;" style="text;strokeColor=none;fillColor=none;align=left;verticalAlign=top;spacingLeft=4;spacingRight=4;overflow=hidden;rotatable=0;points=[[0,0.5],[1,0.5]];portConstraint=eastwest;whiteSpace=wrap;html=1;" vertex="1" parent="j5rkKhJYRvCFbvq0OorO-220">
          <mxGeometry y="77" width="290" height="25" as="geometry" />
        </mxCell>
        <mxCell id="j5rkKhJYRvCFbvq0OorO-234" value="&amp;nbsp;&amp;lt;&amp;lt;event&amp;gt;&amp;gt; + OnItemRemoved : Action&amp;lt;int, T&amp;gt;" style="text;strokeColor=none;fillColor=none;align=left;verticalAlign=top;spacingLeft=4;spacingRight=4;overflow=hidden;rotatable=0;points=[[0,0.5],[1,0.5]];portConstraint=eastwest;whiteSpace=wrap;html=1;" vertex="1" parent="j5rkKhJYRvCFbvq0OorO-220">
          <mxGeometry y="102" width="290" height="25" as="geometry" />
        </mxCell>
        <mxCell id="j5rkKhJYRvCFbvq0OorO-235" value="&amp;nbsp;&amp;lt;&amp;lt;event&amp;gt;&amp;gt; + OnCollectionChanged : Action" style="text;strokeColor=none;fillColor=none;align=left;verticalAlign=top;spacingLeft=4;spacingRight=4;overflow=hidden;rotatable=0;points=[[0,0.5],[1,0.5]];portConstraint=eastwest;whiteSpace=wrap;html=1;" vertex="1" parent="j5rkKhJYRvCFbvq0OorO-220">
          <mxGeometry y="127" width="290" height="25" as="geometry" />
        </mxCell>
        <mxCell id="j5rkKhJYRvCFbvq0OorO-222" value="" style="line;strokeWidth=1;fillColor=none;align=left;verticalAlign=middle;spacingTop=-1;spacingLeft=3;spacingRight=3;rotatable=0;labelPosition=right;points=[];portConstraint=eastwest;strokeColor=inherit;" vertex="1" parent="j5rkKhJYRvCFbvq0OorO-220">
          <mxGeometry y="152" width="290" height="8" as="geometry" />
        </mxCell>
        <mxCell id="j5rkKhJYRvCFbvq0OorO-229" value="+ Change(id : int, item : T) : void" style="text;strokeColor=none;fillColor=none;align=left;verticalAlign=top;spacingLeft=4;spacingRight=4;overflow=hidden;rotatable=0;points=[[0,0.5],[1,0.5]];portConstraint=eastwest;whiteSpace=wrap;html=1;" vertex="1" parent="j5rkKhJYRvCFbvq0OorO-220">
          <mxGeometry y="160" width="290" height="26" as="geometry" />
        </mxCell>
        <mxCell id="j5rkKhJYRvCFbvq0OorO-230" value="+ Add(item : int) : void" style="text;strokeColor=none;fillColor=none;align=left;verticalAlign=top;spacingLeft=4;spacingRight=4;overflow=hidden;rotatable=0;points=[[0,0.5],[1,0.5]];portConstraint=eastwest;whiteSpace=wrap;html=1;" vertex="1" parent="j5rkKhJYRvCFbvq0OorO-220">
          <mxGeometry y="186" width="290" height="26" as="geometry" />
        </mxCell>
        <mxCell id="j5rkKhJYRvCFbvq0OorO-231" value="+ Remove(id : int) : bool" style="text;strokeColor=none;fillColor=none;align=left;verticalAlign=top;spacingLeft=4;spacingRight=4;overflow=hidden;rotatable=0;points=[[0,0.5],[1,0.5]];portConstraint=eastwest;whiteSpace=wrap;html=1;" vertex="1" parent="j5rkKhJYRvCFbvq0OorO-220">
          <mxGeometry y="212" width="290" height="26" as="geometry" />
        </mxCell>
        <mxCell id="j5rkKhJYRvCFbvq0OorO-224" value="&amp;lt;&amp;lt;struct&amp;gt;&amp;gt;&lt;br&gt;Pair&amp;lt;T&amp;gt;" style="swimlane;fontStyle=1;align=center;verticalAlign=top;childLayout=stackLayout;horizontal=1;startSize=36;horizontalStack=0;resizeParent=1;resizeParentMax=0;resizeLast=0;collapsible=1;marginBottom=0;whiteSpace=wrap;html=1;" vertex="1" parent="WIyWlLk6GJQsqaUBKTNV-1">
          <mxGeometry x="1460" y="877" width="160" height="96" as="geometry" />
        </mxCell>
        <mxCell id="j5rkKhJYRvCFbvq0OorO-225" value="+ id: int" style="text;strokeColor=none;fillColor=none;align=left;verticalAlign=top;spacingLeft=4;spacingRight=4;overflow=hidden;rotatable=0;points=[[0,0.5],[1,0.5]];portConstraint=eastwest;whiteSpace=wrap;html=1;" vertex="1" parent="j5rkKhJYRvCFbvq0OorO-224">
          <mxGeometry y="36" width="160" height="26" as="geometry" />
        </mxCell>
        <mxCell id="j5rkKhJYRvCFbvq0OorO-228" value="+ item : T" style="text;strokeColor=none;fillColor=none;align=left;verticalAlign=top;spacingLeft=4;spacingRight=4;overflow=hidden;rotatable=0;points=[[0,0.5],[1,0.5]];portConstraint=eastwest;whiteSpace=wrap;html=1;" vertex="1" parent="j5rkKhJYRvCFbvq0OorO-224">
          <mxGeometry y="62" width="160" height="26" as="geometry" />
        </mxCell>
        <mxCell id="j5rkKhJYRvCFbvq0OorO-226" value="" style="line;strokeWidth=1;fillColor=none;align=left;verticalAlign=middle;spacingTop=-1;spacingLeft=3;spacingRight=3;rotatable=0;labelPosition=right;points=[];portConstraint=eastwest;strokeColor=inherit;" vertex="1" parent="j5rkKhJYRvCFbvq0OorO-224">
          <mxGeometry y="88" width="160" height="8" as="geometry" />
        </mxCell>
      </root>
    </mxGraphModel>
  </diagram>
</mxfile>
